<svg width="23" height="24" viewBox="0 0 23 24" fill="none" xmlns="http://www.w3.org/2000/svg">
<path d="M6.00864 17.5104C7.01955 17.5104 7.83906 16.6909 7.83906 15.68C7.83906 14.6691 7.01955 13.8496 6.00864 13.8496C4.99773 13.8496 4.17822 14.6691 4.17822 15.68C4.17822 16.6909 4.99773 17.5104 6.00864 17.5104Z" stroke="#AFAEBE" stroke-width="1.5" stroke-miterlimit="10"/>
<path d="M16.9911 17.5104C18.002 17.5104 18.8215 16.6909 18.8215 15.68C18.8215 14.6691 18.002 13.8496 16.9911 13.8496C15.9801 13.8496 15.1606 14.6691 15.1606 15.68C15.1606 16.6909 15.9801 17.5104 16.9911 17.5104Z" stroke="#AFAEBE" stroke-width="1.5" stroke-miterlimit="10"/>
<path d="M15.161 15.6797H7.83936" stroke="#AFAEBE" stroke-width="1.5" stroke-miterlimit="10"/>
<path d="M4.17836 15.6797H1.43753V12.9581C1.43625 12.7173 1.48273 12.4787 1.57427 12.2561C1.66581 12.0334 1.80059 11.8312 1.97081 11.6609C2.14103 11.4907 2.34332 11.3559 2.56597 11.2644C2.78862 11.1728 3.02721 11.1264 3.26794 11.1276H4.22627L5.25169 8.96181C5.4775 8.51289 5.82198 8.13441 6.24774 7.86747C6.67349 7.60053 7.16424 7.45533 7.66669 7.44764H14.6625C15.0956 7.44043 15.524 7.53667 15.9124 7.72835C16.3008 7.92003 16.6378 8.20162 16.8954 8.54973L18.8121 11.1085H19.7225C19.9657 11.1059 20.2069 11.152 20.4319 11.2442C20.657 11.3363 20.8613 11.4726 21.0328 11.645C21.2043 11.8174 21.3395 12.0224 21.4305 12.2479C21.5215 12.4735 21.5664 12.7149 21.5625 12.9581V15.6989H18.8217" stroke="#AFAEBE" stroke-width="1.5" stroke-miterlimit="10"/>
<path d="M4.17822 11.1094H18.8216" stroke="#AFAEBE" stroke-width="1.5" stroke-miterlimit="10"/>
<path d="M10.5894 7.44922V11.1101" stroke="#AFAEBE" stroke-width="1.5" stroke-miterlimit="10"/>
</svg>
