<svg width="22" height="26" viewBox="0 0 22 26" fill="none" xmlns="http://www.w3.org/2000/svg">
<path d="M10.6558 0.938477C10.8473 0.753489 11.1546 0.753489 11.3462 0.938477C13.8248 3.33253 17.2383 4.70703 20.7095 4.70703C20.974 4.70716 21.2004 4.91536 21.2007 5.1875V15.3438C21.2007 20.7848 16.618 25.2002 11.0005 25.2002C5.38293 25.2002 0.800293 20.7848 0.800293 15.3438V5.1875C0.800561 4.91536 1.02696 4.70716 1.2915 4.70703C4.76271 4.70703 8.17634 3.33259 10.6558 0.938477ZM11.0005 1.94531C8.49179 4.20889 5.18121 5.54144 1.78271 5.65918V15.3438C1.78271 20.2407 5.91173 24.2373 11.0005 24.2373C16.0892 24.2373 20.2183 20.2407 20.2183 15.3438V5.65918C16.8198 5.54144 13.5092 4.20889 11.0005 1.94531ZM11.0005 7.83203C12.6034 7.83203 13.9183 9.09179 13.9185 10.6562C13.9185 11.4159 13.6037 12.1338 13.0757 12.6582C14.5753 13.3884 15.5365 14.8443 15.5366 16.5156V17.8877H14.5542V16.5156C14.5541 15.0778 13.6335 13.8342 12.2163 13.3447L11.9263 13.2568C11.7304 13.205 11.585 13.0406 11.564 12.8389V12.8379C11.5442 12.6333 11.6579 12.4436 11.8403 12.3574L11.9624 12.2949C12.5586 11.9628 12.936 11.3322 12.936 10.6562C12.9358 9.63593 12.0736 8.79395 10.9995 8.79395C9.92557 8.79403 9.06416 9.63672 9.06396 10.6562C9.06396 11.3763 9.49248 12.0459 10.1597 12.3574C10.3427 12.4427 10.4568 12.6333 10.437 12.8379C10.417 13.042 10.2686 13.2053 10.0757 13.2568H10.0747C8.4945 13.6691 7.4459 14.9829 7.4458 16.5156V17.8877H6.46338V16.5156C6.46346 14.8447 7.4243 13.3886 8.92334 12.6582C8.39633 12.1339 8.08252 11.4156 8.08252 10.6562C8.08272 9.09179 9.39762 7.83203 11.0005 7.83203Z" fill="#AFAEBE" stroke="#AFAEBE" stroke-width="0.4"/>
</svg>
