<svg width="20" height="20" viewBox="0 0 20 20" fill="none" xmlns="http://www.w3.org/2000/svg">
<path fill-rule="evenodd" clip-rule="evenodd" d="M4.27235 5.00065C4.14725 4.51612 4.1327 4.009 4.23055 3.51702C4.3375 2.97939 4.57538 2.47642 4.92314 2.05268C5.2709 1.62894 5.71779 1.29749 6.22423 1.08772C6.73067 0.877944 7.28103 0.796307 7.82656 0.850035C8.37209 0.903769 8.89592 1.09121 9.35175 1.39575C9.59225 1.55647 9.80992 1.74719 9.99984 1.96253C10.1769 1.76178 10.3781 1.58235 10.5996 1.42865C11.042 1.12172 11.5521 0.92651 12.0863 0.859727C12.6207 0.792944 13.1631 0.856569 13.6674 1.04517C14.1718 1.23376 14.6228 1.54172 14.9822 1.94268C15.3415 2.34364 15.5984 2.82569 15.7308 3.34757C15.8633 3.86945 15.8673 4.41564 15.7425 4.93942C15.7377 4.95989 15.7326 4.9803 15.7273 5.00065H15.8332C17.2139 5.00065 18.3332 6.11994 18.3332 7.50065V8.33399C18.3332 9.42249 17.6375 10.3486 16.6665 10.6917V16.6673C16.6665 18.0481 15.5473 19.1673 14.1665 19.1673H5.83317C4.45246 19.1673 3.33317 18.0481 3.33317 16.6673V10.6917C2.36218 10.3486 1.6665 9.42249 1.6665 8.33399V7.50065C1.6665 6.11994 2.7858 5.00065 4.1665 5.00065H4.27235ZM8.9605 3.38658C9.08884 3.62665 9.16642 3.89465 9.1665 4.16688V5.00065H6.06851C6.00404 4.88991 5.95239 4.77165 5.91491 4.6481C5.83585 4.38746 5.82229 4.11134 5.87542 3.8442C5.92856 3.57707 6.04675 3.32716 6.21954 3.11661C6.39234 2.90607 6.61439 2.74139 6.86602 2.63715C7.11766 2.53292 7.39112 2.49236 7.66218 2.51905C7.93324 2.54575 8.19353 2.63889 8.42 2.79021C8.6465 2.94153 8.83209 3.14636 8.9605 3.38658ZM10.8332 17.5007H14.1665C14.6268 17.5007 14.9998 17.1276 14.9998 16.6673V10.834H10.8332V17.5007ZM9.1665 10.834V17.5007H5.83317C5.37294 17.5007 4.99984 17.1276 4.99984 16.6673V10.834H9.1665ZM10.8332 9.16732H15.8332C16.2934 9.16732 16.6665 8.79424 16.6665 8.33399V7.50065C16.6665 7.04042 16.2934 6.66732 15.8332 6.66732H10.8332V9.16732ZM9.1665 6.66732V9.16732H4.1665C3.70627 9.16732 3.33317 8.79424 3.33317 8.33399V7.50065C3.33317 7.04042 3.70627 6.66732 4.1665 6.66732H9.1665ZM10.8332 5.00065H13.9312C14.0126 4.86086 14.0733 4.70941 14.111 4.55095C14.173 4.2907 14.171 4.01932 14.1053 3.76001C14.0394 3.5007 13.9118 3.26119 13.7333 3.06196C13.5547 2.86273 13.3306 2.70972 13.08 2.61601C12.8294 2.5223 12.5598 2.49069 12.2944 2.52387C12.0289 2.55705 11.7755 2.65404 11.5557 2.80655C11.3358 2.95906 11.1563 3.16254 11.0323 3.39959C10.9084 3.6364 10.8333 3.90007 10.8332 4.16732V5.00065Z" fill="#AFAEBE"/>
</svg>
