<svg width="27" height="28" viewBox="0 0 27 28" fill="none" xmlns="http://www.w3.org/2000/svg">
<path d="M5.625 4.15039H12.625C13.9919 4.15039 15.0996 5.2581 15.0996 6.625V10.2754H21.375C22.7419 10.2754 23.8496 11.3831 23.8496 12.75V22.375C23.8496 23.7419 22.7419 24.8496 21.375 24.8496H14.375C13.0081 24.8496 11.9004 23.7419 11.9004 22.375V18.7246H5.625C4.2581 18.7246 3.15039 17.6169 3.15039 16.25V6.625C3.15039 5.2581 4.2581 4.15039 5.625 4.15039ZM15.0996 13.7754H17.1504V13.625C17.1504 13.2246 17.4746 12.9004 17.875 12.9004C18.2754 12.9004 18.5996 13.2246 18.5996 13.625V13.7754H20.5C20.9004 13.7754 21.2246 14.0996 21.2246 14.5C21.2246 14.9004 20.9004 15.2246 20.5 15.2246H20.207L20.1787 15.3379C19.8547 16.6148 19.3603 17.7816 18.6992 18.8359L18.6396 18.9316L18.7148 19.0156C19.337 19.7124 20.0658 20.3388 20.9023 20.8965C21.2355 21.1186 21.3256 21.5692 21.1035 21.9023C20.8813 22.2354 20.4308 22.3256 20.0977 22.1035C19.2645 21.548 18.5236 20.9286 17.876 20.2461L17.7627 20.126L17.6543 20.251C17.0805 20.9158 16.4234 21.526 15.6846 22.0801C15.3643 22.3201 14.9101 22.2548 14.6699 21.9346C14.4299 21.6143 14.4952 21.1601 14.8154 20.9199C15.5575 20.3633 16.2046 19.7445 16.7578 19.0625L16.8291 18.9746L16.7646 18.8828C16.5271 18.5415 16.3085 18.187 16.1084 17.8203L15.9141 17.4492C15.735 17.0911 15.8802 16.6557 16.2383 16.4766C16.5518 16.3198 16.9247 16.4114 17.1328 16.6768L17.2109 16.8008C17.3222 17.0232 17.441 17.2407 17.5674 17.4531L17.7041 17.6826L17.8291 17.4473C18.1671 16.813 18.4415 16.1361 18.6533 15.417L18.71 15.2246H15.0996V16.25C15.0996 17.3273 14.4116 18.2441 13.4502 18.584L13.3496 18.6191V22.375C13.3496 22.9411 13.8089 23.4004 14.375 23.4004H21.375C21.9411 23.4004 22.4004 22.9411 22.4004 22.375V12.75C22.4004 12.1839 21.9411 11.7246 21.375 11.7246H15.0996V13.7754ZM10.0977 7.17578C9.78616 6.2413 8.46384 6.2413 8.15234 7.17578L5.52734 15.0508C5.34832 15.5878 5.63877 16.1686 6.17578 16.3477C6.7128 16.5266 7.29364 16.2363 7.47266 15.6992L7.96777 14.2129H10.2822L10.7773 15.6992C10.9564 16.2363 11.5372 16.5266 12.0742 16.3477C12.6113 16.1686 12.9016 15.5878 12.7227 15.0508L10.0977 7.17578ZM9.59766 12.1621H8.65234L9.125 10.7422L9.59766 12.1621Z" fill="#AFAEBE" stroke="#AFAEBE" stroke-width="0.3"/>
</svg>
