<svg width="23" height="24" viewBox="0 0 23 24" fill="none" xmlns="http://www.w3.org/2000/svg">
<path d="M14.5254 2.11133V4.69922H17.041V7.25098H19.5566V21.9258H8.47461V19.4102H5.95898V16.7871H3.44336V2.11133H14.5254ZM17.041 19.374H9.49414V20.8711H18.5371V8.2334H17.041V19.374ZM14.5254 16.7871H6.97852V18.3555H16.0215V5.71777H14.5254V16.7871ZM4.46289 15.7676H13.5059V3.13086H4.46289V15.7676Z" fill="#AFAEBE" stroke="#AFAEBE" stroke-width="0.3"/>
<path d="M12.7578 4.77734H5.21094V5.49609H12.7578V4.77734Z" fill="#AFAEBE"/>
<path d="M12.7578 6.03516H5.21094V6.75391H12.7578V6.03516Z" fill="#AFAEBE"/>
<path d="M12.7578 7.29297H5.21094V8.01172H12.7578V7.29297Z" fill="#AFAEBE"/>
<path d="M12.7578 8.55078H5.21094V9.26953H12.7578V8.55078Z" fill="#AFAEBE"/>
<path d="M8.01406 9.80859H5.21094V10.5273H8.01406V9.80859Z" fill="#AFAEBE"/>
<path d="M6.82812 13.582H5.21094V14.3008H6.82812V13.582Z" fill="#AFAEBE"/>
</svg>
